<?xml version="1.0" encoding="utf-8"?>
<!-- Generator: Adobe Illustrator 26.5.0, SVG Export Plug-In . SVG Version: 6.00 Build 0)  -->
<svg version="1.1" id="Capa_1" xmlns="http://www.w3.org/2000/svg" xmlns:xlink="http://www.w3.org/1999/xlink" x="0px" y="0px"
	 viewBox="0 0 40.6 40.3" style="enable-background:new 0 0 40.6 40.3;" xml:space="preserve">
<g id="Behance">
	<path d="M35.2,40h-30c-1.3,0-2.6-0.5-3.6-1.4c-0.9-0.9-1.5-2.2-1.4-3.5V5c0-1.3,0.5-2.6,1.4-3.6C2.6,0.5,3.9,0,5.3,0h30
		c1.3,0,2.6,0.5,3.6,1.4c1,0.9,1.5,2.2,1.4,3.6v30C40.2,37.8,38,40,35.2,40z M6.5,11.3c-0.1,0-0.1,0-0.1,0.1v17c0,0.1,0,0.1,0.1,0.1
		c0,0,0,0,0,0h6.4c1.4,0,2.8-0.1,4.1-0.4c2.1-0.6,3.6-2.6,3.5-4.8v-0.1c0.1-1.8-0.9-3.4-2.6-4c1.3-0.7,2.1-2,2-3.5
		c0-0.3,0-0.6-0.1-1c-0.6-2.4-2.2-3.6-5-3.6L6.5,11.3z M9.9,14.3H14c1.7,0,2.5,0.6,2.5,1.8l0,0c0,0.3-0.1,0.6-0.2,0.9
		c-0.2,0.7-1.3,1-3.1,1H9.9V14.3z M9.9,20.9h4.2c1.8,0,2.8,0.7,2.8,2v0.2c0,1.5-0.8,2.3-2.4,2.3H9.9V20.9z M27.8,15.4
		c-0.9,0-1.8,0.2-2.7,0.5c-2.3,1-3.8,3.3-3.6,5.9v1c0,1.2,0.3,2.4,0.9,3.5c1.2,1.7,3.2,2.8,5.4,2.7c1.4,0.1,2.7-0.3,3.9-1
		c1.5-1.2,2.2-2.2,2.2-3c0-0.1,0-0.2-0.1-0.2h-3.2c-0.5,1-1.5,1.5-2.6,1.5c-0.3,0-0.5-0.1-0.8-0.1c-1.4-0.2-2.5-1.5-2.4-3H34
		c0.1,0,0.1,0,0.1-0.1v-1.1c0-0.4,0-0.8-0.1-1.3c-0.2-3.1-3-5.5-6.1-5.3C27.9,15.4,27.8,15.4,27.8,15.4z M23.9,12.2
		c0,0-0.1,0-0.1,0.1v1.6c0,0.1,0,0.1,0.1,0.1h7.3c0.1,0,0.2,0,0.2-0.1v-1.6c0-0.1,0-0.1-0.2-0.1H23.9z M25,20.8
		c0-0.2,0.1-0.5,0.2-0.7c0.3-1.2,1.4-2,2.7-1.9c0.3,0,0.6,0,1,0.1c1.1,0.3,1.9,1.3,1.9,2.5H25z"/>
</g>
</svg>
