<?xml version="1.0" encoding="utf-8"?>
<!-- Generator: Adobe Illustrator 25.4.1, SVG Export Plug-In . SVG Version: 6.00 Build 0)  -->
<svg version="1.1" id="Capa_1" xmlns="http://www.w3.org/2000/svg" xmlns:xlink="http://www.w3.org/1999/xlink" x="0px" y="0px"
	 viewBox="0 0 97.7 84.1" style="enable-background:new 0 0 97.7 84.1;" xml:space="preserve">
<style type="text/css">
	.st0{fill:#FFFFFF;}
</style>
<g>
	<g>
		<path class="st0" d="M53,40.9c0.5,0,0.7-0.4,0.8-1c0.7-2.8,1.3-5.6,2-8.4c0.4-1.6,1.4-2.9,2.9-3.7c1.4-0.8,2.9-1.4,4.4-2.1
			c0.5-0.2,0.8-0.4,0.7-0.9c-0.1-0.5-0.4-0.7-1-0.7c-3.7-0.2-6.7-1.8-7.9-5.8c-0.6-1.9-1.1-3.9-1.2-6c0-0.5-0.3-0.9-0.8-1
			c-0.6,0-0.8,0.4-0.9,0.9c0,0.1,0,0.2,0,0.3c-0.2,2.4-0.7,4.6-1.6,6.8c-0.8,2.1-2.3,3.4-4.4,4.1c-1,0.3-2,0.5-3.1,0.6
			c-0.5,0.1-0.8,0.2-0.9,0.7c-0.1,0.5,0.2,0.8,0.7,0.9c0.9,0.4,1.9,0.7,2.8,1.2c1.4,0.6,2.8,1.3,3.6,2.6c0.7,1.2,1.2,2.6,1.6,3.9
			c0.6,2.1,1,4.3,1.4,6.5C52.1,40.5,52.4,40.9,53,40.9z M30.2,68.1c0.8,0,0.8-0.6,0.9-1.1c0.4-1.8,0.9-3.6,1.4-5.4
			c0.4-1.4,1.2-2.3,2.5-2.9c1.1-0.5,2.3-1,3.4-1.5c0.4-0.2,0.6-0.4,0.6-0.8c-0.1-0.4-0.3-0.7-0.8-0.8c-0.4,0-0.8-0.1-1.2-0.1
			c-2.3-0.4-4.2-1.5-4.9-3.9c-0.4-1.4-0.7-2.9-1-4.3c-0.1-0.5-0.3-0.9-0.8-0.9c-0.6,0-0.7,0.4-0.8,0.9c-0.3,1.6-0.7,3.2-1.2,4.8
			c-0.5,1.6-1.8,2.6-3.4,3.1c-0.7,0.2-1.5,0.3-2.3,0.4c-0.5,0.1-0.9,0.2-0.9,0.7c-0.1,0.5,0.2,0.8,0.7,1c0.8,0.3,1.7,0.7,2.5,1
			c1.9,0.7,3.1,2.1,3.5,4.1c0.4,1.7,0.8,3.3,1.2,5C29.5,67.8,29.8,68,30.2,68.1z M77.6,32.6c0-0.9-0.4-1-1-1.1
			c-2.8-0.2-4.1-1.2-4.9-3.8c-0.3-0.9-0.4-1.9-0.6-2.8c-0.1-0.5-0.3-1-0.9-1c-0.6,0-0.7,0.5-0.8,1c-0.3,1.3-0.7,2.7-1.1,4
			c-0.3,1.1-1.2,1.8-2.2,2.1c-0.7,0.2-1.5,0.4-2.2,0.5c-0.5,0.1-1,0.2-1,0.8c-0.1,0.6,0.4,0.8,0.8,1c0.7,0.3,1.5,0.6,2.2,0.9
			c1.3,0.6,2.2,1.5,2.5,2.9c0.3,1.5,0.7,2.9,1,4.4c0.1,0.4,0.3,0.8,0.8,0.8c0.5,0,0.8-0.2,0.9-0.7c0-0.1,0.1-0.3,0.1-0.4
			c0.4-1.5,0.7-2.9,1.1-4.4c0.3-1.1,1-2,2.1-2.5c0.9-0.4,1.7-0.7,2.6-1.1C77.2,33,77.4,32.7,77.6,32.6z M42.8,30.1
			c-0.1-0.7-0.3-1-0.9-1.1c-2.4-0.2-3.4-1.1-4.1-3.4c-0.2-0.6-0.3-1.3-0.4-2c-0.1-0.5-0.3-0.9-0.8-0.9c-0.5,0-0.7,0.4-0.8,0.9
			c-0.2,1-0.4,1.9-0.7,2.9c-0.4,1.4-1.5,2.1-2.9,2.4c-0.3,0.1-0.7,0-0.9,0.2c-0.3,0.2-0.7,0.4-0.7,0.7c0,0.3,0.3,0.7,0.5,0.9
			c0.4,0.3,0.9,0.4,1.4,0.6c1.5,0.5,2.4,1.6,2.7,3.1c0.2,1,0.4,2,0.7,3c0.1,0.4,0.4,0.8,0.8,0.7c0.3-0.1,0.6-0.4,0.8-0.7
			c0.1-0.1,0.1-0.3,0.1-0.4c0.3-1.1,0.5-2.3,0.8-3.4c0.2-0.9,0.8-1.6,1.7-2c0.7-0.3,1.4-0.6,2.1-0.9C42.5,30.5,42.7,30.2,42.8,30.1z
			 M42.2,45.4c-0.5,0-0.7,0.4-0.8,0.8c-0.2,0.8-0.3,1.5-0.5,2.3c-0.3,1-1,1.6-2,1.8c-0.3,0.1-0.7,0-1,0.2c-0.3,0.2-0.7,0.5-0.7,0.7
			c0,0.3,0.4,0.7,0.7,0.9c0.3,0.2,0.7,0.3,1.1,0.4c1,0.4,1.6,1,1.8,2c0.2,0.9,0.5,1.8,0.7,2.7c0.1,0.4,0.3,0.8,0.8,0.8
			c0.5,0,0.8-0.3,0.9-0.8c0.1-0.5,0.3-1,0.3-1.5c0.3-1.9,1.3-3.2,3.2-3.6c0.1,0,0.3-0.1,0.4-0.2c0.2-0.2,0.4-0.5,0.4-0.8
			c0-0.2-0.3-0.5-0.5-0.7c-0.1-0.1-0.3-0.1-0.5-0.1c-1.3-0.1-2.3-0.7-2.7-2c-0.2-0.7-0.4-1.4-0.5-2.1C43,45.8,42.8,45.4,42.2,45.4z
			 M65.9,55.9c0.8,0,1.1-0.3,1.2-1.1c0.3-2.2,0.9-4.2,3.5-4.8c0.3,0,0.6-0.6,0.6-0.8c0-0.3-0.5-0.5-0.7-0.7
			c-0.1-0.1-0.3-0.1-0.5-0.1c-1.2-0.2-2.1-0.7-2.4-2c-0.2-0.7-0.3-1.5-0.5-2.2c-0.1-0.3-0.5-0.6-0.7-0.6c-0.3,0-0.6,0.4-0.8,0.6
			c-0.1,0,0,0.2,0,0.3c-0.3,2.1-0.9,4-3.6,4c-0.2,0-0.6,0.4-0.6,0.7c0,0.3,0.2,0.7,0.5,0.8c0.4,0.3,0.9,0.3,1.3,0.5
			c0.9,0.3,1.5,1,1.7,1.9c0.2,0.9,0.4,1.8,0.7,2.7C65.5,55.4,65.8,55.7,65.9,55.9z M27.2,42.7c-0.1-0.7-0.4-1-0.9-1
			c-1.6-0.1-2.3-0.7-2.7-2.2c-0.2-0.6-0.2-1.2-0.4-1.8c-0.1-0.3-0.5-0.6-0.8-0.6c-0.3,0-0.6,0.3-0.8,0.6c-0.1,0.1-0.1,0.4-0.1,0.6
			c-0.4,2.6-1.2,3.2-3.1,3.4c0,0-0.1,0-0.1,0c-0.2,0.2-0.7,0.4-0.7,0.7c0,0.3,0.2,0.7,0.5,0.9c0.4,0.3,0.8,0.3,1.2,0.5
			c0.8,0.3,1.3,0.8,1.5,1.7c0.2,0.9,0.4,1.7,0.6,2.5c0.1,0.4,0.3,0.8,0.8,0.8c0.5,0,0.7-0.3,0.9-0.8c0-0.1,0-0.2,0-0.3
			c0.3-2.1,0.9-4.1,3.4-4.5c0,0,0,0,0.1,0C26.9,43,27.1,42.8,27.2,42.7z M40.1,71.4c0.4-0.4,0.7-0.6,0.8-0.9
			c0.2-0.4,0.2-0.9,0.3-1.3c0.2-1.3,0.9-2.1,2.1-2.4c0.5-0.1,0.9-0.4,0.8-1c-0.1-0.6-0.5-0.7-1-0.8c-0.9-0.1-1.6-0.5-1.8-1.4
			c-0.1-0.5-0.2-1-0.3-1.4c-0.1-0.5-0.3-0.8-0.8-0.8c-0.5,0-0.7,0.3-0.8,0.7c0,0.2-0.1,0.5-0.1,0.7c-0.3,1.5-0.7,2-2.3,2.2
			c0,0-0.1,0-0.1,0c-0.3,0.2-0.7,0.5-0.7,0.7c-0.1,0.2,0.3,0.6,0.5,0.8c0.2,0.2,0.6,0.3,0.9,0.4c0.7,0.3,1.2,0.7,1.4,1.5
			c0.1,0.6,0.3,1.3,0.5,1.9C39.4,70.7,39.7,71,40.1,71.4z M59.5,37.2c-0.7,0-1,0.3-1.1,0.9c-0.3,1.9-0.7,2.7-2.4,2.8
			c0,0-0.1,0-0.1,0c-0.2,0.2-0.6,0.5-0.7,0.7c0,0.2,0.2,0.6,0.5,0.8c0.2,0.2,0.6,0.3,0.9,0.4c0.7,0.3,1.2,0.8,1.4,1.5
			c0.1,0.6,0.2,1.3,0.5,1.9c0.1,0.3,0.5,0.7,0.8,0.7c0.3,0,0.6-0.4,0.8-0.6c0.1-0.1,0.1-0.3,0.1-0.4c0.2-1.6,0.7-3,2.6-3.4
			c0,0,0.1,0,0.1-0.1c0.1-0.3,0.4-0.5,0.4-0.8c0-0.2-0.3-0.5-0.5-0.7c-0.1-0.1-0.4-0.1-0.6-0.1c-0.9-0.1-1.5-0.5-1.7-1.4
			c-0.1-0.5-0.2-1.1-0.4-1.6C59.9,37.6,59.6,37.4,59.5,37.2z"/>
		<path d="M53,40.9c-0.6,0-0.8-0.4-1-0.9c-0.4-2.2-0.8-4.3-1.4-6.5c-0.4-1.4-0.9-2.7-1.6-3.9c-0.8-1.3-2.3-1.9-3.6-2.6
			c-0.9-0.4-1.9-0.8-2.8-1.2c-0.4-0.2-0.8-0.4-0.7-0.9c0.1-0.5,0.4-0.7,0.9-0.7c1-0.2,2.1-0.3,3.1-0.6c2.1-0.7,3.6-2,4.4-4.1
			c0.9-2.2,1.4-4.5,1.6-6.8c0-0.1,0-0.2,0-0.3c0.1-0.5,0.3-0.9,0.9-0.9c0.6,0,0.8,0.4,0.8,1c0.1,2,0.6,4,1.2,6
			c1.3,4,4.3,5.6,7.9,5.8c0.5,0,0.9,0.2,1,0.7c0.1,0.5-0.2,0.7-0.7,0.9c-1.5,0.7-3,1.3-4.4,2.1c-1.5,0.8-2.5,2-2.9,3.7
			c-0.7,2.8-1.4,5.6-2,8.4C53.7,40.5,53.5,40.9,53,40.9z M60,25.3c-4.3-1.1-6.1-4.2-7.1-8.1c-1,3.9-2.8,7-7.2,8.1
			c0.5,0.3,0.9,0.4,1.3,0.6c2.5,1.2,4.2,3.1,4.9,5.8c0.3,1.3,0.7,2.6,1,3.9c0.3-1,0.5-2,0.7-2.9c0.7-3.4,2.6-5.8,5.9-7.2
			C59.7,25.5,59.8,25.4,60,25.3z"/>
		<path d="M30.2,68.1c-0.5,0-0.7-0.3-0.8-0.8c-0.4-1.7-0.8-3.3-1.2-5c-0.5-2-1.6-3.3-3.5-4.1c-0.8-0.3-1.7-0.7-2.5-1
			c-0.5-0.2-0.8-0.5-0.7-1c0.1-0.5,0.5-0.6,0.9-0.7c0.8-0.1,1.6-0.2,2.3-0.4c1.6-0.5,2.9-1.4,3.4-3.1c0.5-1.6,0.9-3.2,1.2-4.8
			c0.1-0.5,0.3-0.9,0.8-0.9c0.6,0,0.7,0.4,0.8,0.9c0.3,1.4,0.6,2.9,1,4.3c0.7,2.4,2.6,3.4,4.9,3.9c0.4,0.1,0.8,0.1,1.2,0.1
			c0.5,0,0.7,0.3,0.8,0.8c0.1,0.4-0.2,0.7-0.6,0.8c-1.1,0.5-2.3,0.9-3.4,1.5c-1.3,0.6-2.1,1.6-2.5,2.9c-0.5,1.8-0.9,3.6-1.4,5.4
			C31.1,67.4,31,68,30.2,68.1z M25.3,56.7c3.1,1.1,4.3,3.6,5,6.5c0.6-2.9,1.8-5.4,5-6.5c-2.8-0.9-4.2-2.7-5-5.3
			C29,54.5,28.2,55.4,25.3,56.7z"/>
		<path d="M77.6,32.6c-0.2,0.1-0.4,0.4-0.7,0.6c-0.9,0.4-1.7,0.7-2.6,1.1c-1.1,0.5-1.8,1.3-2.1,2.5c-0.4,1.4-0.7,2.9-1.1,4.4
			c0,0.1-0.1,0.3-0.1,0.4c-0.1,0.5-0.4,0.8-0.9,0.7c-0.5,0-0.7-0.4-0.8-0.8c-0.3-1.5-0.7-2.9-1-4.4c-0.3-1.4-1.2-2.4-2.5-2.9
			c-0.7-0.3-1.4-0.6-2.2-0.9c-0.5-0.2-0.9-0.4-0.8-1c0.1-0.6,0.6-0.7,1-0.8c0.7-0.1,1.5-0.3,2.2-0.5c1.1-0.4,1.9-1.1,2.2-2.1
			c0.4-1.3,0.8-2.7,1.1-4c0.1-0.5,0.2-1,0.8-1c0.6,0,0.8,0.5,0.9,1c0.2,0.9,0.3,1.9,0.6,2.8c0.8,2.6,2.2,3.7,4.9,3.8
			C77.1,31.5,77.5,31.7,77.6,32.6z M70.2,28.6c-1.4,2.9-1.9,3-3.7,4c2.2,0.9,3.2,2.7,3.7,4.8c0.5-2.2,1.5-3.9,3.7-4.8
			C72,31.8,70.8,30.5,70.2,28.6z"/>
		<path d="M42.8,30.1c-0.2,0.1-0.4,0.4-0.7,0.6c-0.7,0.3-1.4,0.6-2.1,0.9c-0.9,0.4-1.4,1.1-1.7,2c-0.3,1.1-0.6,2.3-0.8,3.4
			c0,0.2,0,0.3-0.1,0.4c-0.2,0.3-0.5,0.6-0.8,0.7c-0.5,0.1-0.7-0.3-0.8-0.7c-0.2-1-0.5-2-0.7-3c-0.3-1.6-1.2-2.6-2.7-3.1
			c-0.5-0.2-1-0.3-1.4-0.6c-0.3-0.2-0.6-0.6-0.5-0.9c0-0.3,0.4-0.5,0.7-0.7c0.3-0.1,0.6-0.1,0.9-0.2c1.4-0.3,2.5-0.9,2.9-2.4
			c0.3-0.9,0.5-1.9,0.7-2.9c0.1-0.5,0.3-0.9,0.8-0.9c0.6,0,0.8,0.3,0.8,0.9c0.1,0.7,0.2,1.3,0.4,2c0.7,2.3,1.7,3.2,4.1,3.4
			C42.5,29,42.8,29.3,42.8,30.1z M34,30c1.5,0.7,2.3,1.9,2.7,3.4c0.4-1.5,1.2-2.6,2.7-3.4c-1.3-0.6-2.1-1.5-2.7-2.9
			C36.1,28.5,35.3,29.4,34,30z"/>
		<path d="M42.2,45.4c0.5,0,0.8,0.3,0.9,0.9c0.1,0.7,0.3,1.4,0.5,2.1c0.4,1.3,1.4,1.9,2.7,2c0.2,0,0.4,0,0.5,0.1
			c0.2,0.2,0.5,0.4,0.5,0.7c0,0.2-0.2,0.5-0.4,0.8c-0.1,0.1-0.2,0.1-0.4,0.2c-1.9,0.4-3,1.7-3.2,3.6c-0.1,0.5-0.2,1-0.3,1.5
			C43,57.8,42.7,58,42.2,58c-0.5,0-0.7-0.3-0.8-0.8c-0.2-0.9-0.5-1.8-0.7-2.7c-0.2-1-0.9-1.7-1.8-2c-0.4-0.1-0.8-0.2-1.1-0.4
			c-0.3-0.2-0.6-0.6-0.7-0.9c0-0.2,0.4-0.6,0.7-0.7c0.3-0.1,0.7-0.1,1-0.2c1-0.2,1.7-0.8,2-1.8c0.2-0.7,0.4-1.5,0.5-2.3
			C41.5,45.8,41.7,45.4,42.2,45.4z M43.8,51.4c-0.5-0.6-1.1-1.2-1.6-1.7c-0.5,0.6-1.1,1.2-1.6,1.7c0.5,0.7,1.1,1.4,1.6,2
			C42.7,52.8,43.3,52.1,43.8,51.4z"/>
		<path d="M65.9,55.9c-0.1-0.2-0.4-0.4-0.5-0.8c-0.3-0.9-0.5-1.8-0.7-2.7c-0.2-1-0.8-1.6-1.7-1.9c-0.4-0.2-0.9-0.3-1.3-0.5
			c-0.2-0.2-0.5-0.5-0.5-0.8c0-0.2,0.4-0.7,0.6-0.7c2.7-0.1,3.3-1.9,3.6-4c0-0.1,0-0.2,0-0.3c0.3-0.2,0.5-0.6,0.8-0.6
			c0.2,0,0.6,0.3,0.7,0.6c0.2,0.7,0.4,1.5,0.5,2.2c0.3,1.3,1.2,1.8,2.4,2c0.2,0,0.4,0,0.5,0.1c0.3,0.2,0.7,0.5,0.7,0.7
			c0,0.3-0.3,0.8-0.6,0.8c-2.7,0.5-3.2,2.6-3.5,4.8C67,55.6,66.7,55.9,65.9,55.9z M66.2,51.3c0.5-0.6,1-1.3,1.5-1.9
			c-0.5-0.6-1-1.1-1.5-1.6c-0.5,0.5-1.1,1.1-1.5,1.6C65.3,50.1,65.8,50.8,66.2,51.3z"/>
		<path d="M27.2,42.7c-0.1,0.1-0.3,0.3-0.4,0.6c0,0,0,0-0.1,0c-2.5,0.5-3.1,2.4-3.4,4.5c0,0.1,0,0.2,0,0.3c-0.1,0.4-0.3,0.8-0.9,0.8
			c-0.5,0-0.7-0.3-0.8-0.8c-0.2-0.8-0.4-1.7-0.6-2.5c-0.2-0.9-0.7-1.4-1.5-1.7c-0.4-0.2-0.9-0.3-1.2-0.5c-0.3-0.2-0.5-0.6-0.5-0.9
			c0-0.2,0.4-0.5,0.7-0.7c0,0,0,0,0.1,0c2-0.2,2.7-0.8,3.1-3.4c0-0.2,0-0.5,0.1-0.6c0.2-0.2,0.5-0.6,0.8-0.6c0.3,0,0.7,0.3,0.8,0.6
			c0.2,0.6,0.2,1.2,0.4,1.8c0.4,1.5,1.1,2.1,2.7,2.2C26.8,41.7,27.1,41.9,27.2,42.7z M22.3,44.3c0.4-0.5,0.9-1.1,1.4-1.7
			c-0.5-0.5-0.9-1-1.4-1.4c-0.4,0.5-0.9,1-1.4,1.4C21.4,43.2,21.9,43.8,22.3,44.3z"/>
		<path d="M40.1,71.4c-0.3-0.4-0.6-0.7-0.7-1c-0.2-0.6-0.4-1.2-0.5-1.9c-0.2-0.8-0.6-1.3-1.4-1.5c-0.3-0.1-0.6-0.2-0.9-0.4
			c-0.2-0.2-0.5-0.6-0.5-0.8c0.1-0.3,0.5-0.5,0.7-0.7c0,0,0,0,0.1,0c1.5-0.3,2-0.7,2.3-2.2c0-0.2,0.1-0.5,0.1-0.7
			c0.1-0.5,0.3-0.7,0.8-0.7c0.5,0,0.7,0.3,0.8,0.8c0.1,0.5,0.2,1,0.3,1.4c0.3,0.9,0.9,1.3,1.8,1.4c0.5,0,0.9,0.2,1,0.8
			c0.1,0.6-0.3,0.8-0.8,1c-1.3,0.3-1.9,1.1-2.1,2.4c-0.1,0.4-0.1,0.9-0.3,1.3C40.8,70.8,40.4,71,40.1,71.4z M39.3,66.1
			c0.3,0.3,0.5,0.6,0.8,0.9c0.3-0.3,0.6-0.7,0.8-1c-0.3-0.3-0.6-0.6-0.8-0.8C39.9,65.6,39.6,65.8,39.3,66.1z"/>
		<path d="M59.5,37.2c0.1,0.2,0.4,0.4,0.5,0.7c0.2,0.5,0.2,1,0.4,1.6c0.2,0.9,0.8,1.3,1.7,1.4c0.2,0,0.4,0,0.6,0.1
			c0.2,0.2,0.5,0.4,0.5,0.7c0,0.2-0.2,0.5-0.4,0.8c0,0-0.1,0.1-0.1,0.1c-1.9,0.4-2.4,1.7-2.6,3.4c0,0.2,0,0.3-0.1,0.4
			c-0.2,0.2-0.5,0.6-0.8,0.6c-0.3,0-0.7-0.4-0.8-0.7c-0.2-0.6-0.3-1.2-0.5-1.9c-0.2-0.8-0.6-1.3-1.4-1.5c-0.3-0.1-0.7-0.2-0.9-0.4
			c-0.2-0.2-0.5-0.6-0.5-0.8c0.1-0.3,0.4-0.5,0.7-0.7c0,0,0,0,0.1,0c1.8-0.1,2.1-0.9,2.4-2.8C58.5,37.5,58.7,37.2,59.5,37.2z
			 M58.4,41.9c0.3,0.3,0.6,0.7,0.9,1c0.3-0.4,0.6-0.7,0.8-0.9c-0.3-0.3-0.6-0.6-0.8-0.8C58.9,41.4,58.7,41.6,58.4,41.9z"/>
		<path class="st0" d="M60,25.3c-0.2,0.1-0.4,0.2-0.5,0.3c-3.2,1.3-5.2,3.8-5.9,7.2c-0.2,1-0.5,1.9-0.7,2.9c-0.4-1.4-0.7-2.6-1-3.9
			c-0.7-2.7-2.4-4.6-4.9-5.8c-0.4-0.2-0.7-0.4-1.3-0.6c4.3-1.1,6.2-4.2,7.2-8.1C53.9,21,55.7,24.2,60,25.3z"/>
		<path class="st0" d="M25.3,56.7c2.9-1.3,3.7-2.2,5-5.4c0.8,2.6,2.2,4.5,5,5.3c-3.2,1.2-4.4,3.6-5,6.5
			C29.6,60.3,28.4,57.8,25.3,56.7z"/>
		<path class="st0" d="M70.2,28.6c0.6,1.9,1.8,3.2,3.7,4c-2.2,1-3.3,2.7-3.7,4.8c-0.6-2.1-1.5-3.9-3.7-4.8
			C68.3,31.6,68.8,31.5,70.2,28.6z"/>
		<path class="st0" d="M34,30c1.3-0.6,2.2-1.5,2.7-2.9c0.5,1.4,1.3,2.3,2.7,2.9c-1.4,0.7-2.2,1.9-2.7,3.4C36.2,31.9,35.4,30.8,34,30
			z"/>
		<path class="st0" d="M43.8,51.4c-0.5,0.7-1.1,1.4-1.6,2c-0.5-0.6-1.1-1.3-1.6-2c0.5-0.5,1.1-1.1,1.6-1.7
			C42.7,50.3,43.3,50.9,43.8,51.4z"/>
		<path class="st0" d="M66.2,51.3c-0.4-0.6-1-1.2-1.5-1.9c0.5-0.5,1-1.1,1.5-1.6c0.5,0.5,1,1.1,1.5,1.6
			C67.2,50.1,66.7,50.7,66.2,51.3z"/>
		<path class="st0" d="M22.3,44.3c-0.4-0.5-0.9-1.1-1.4-1.7c0.4-0.5,0.9-1,1.4-1.4c0.4,0.5,0.9,1,1.4,1.4
			C23.3,43.2,22.8,43.8,22.3,44.3z"/>
		<path class="st0" d="M39.3,66.1c0.3-0.3,0.6-0.6,0.8-0.8c0.2,0.2,0.5,0.5,0.8,0.8c-0.2,0.3-0.5,0.6-0.8,1
			C39.8,66.7,39.5,66.4,39.3,66.1z"/>
		<path class="st0" d="M58.4,41.9c0.3-0.3,0.6-0.5,0.8-0.8c0.2,0.2,0.5,0.5,0.8,0.8c-0.2,0.3-0.5,0.6-0.8,0.9
			C58.9,42.6,58.7,42.2,58.4,41.9z"/>
	</g>
</g>
</svg>
