<?xml version="1.0" encoding="utf-8"?>
<!-- Generator: Adobe Illustrator 25.2.1, SVG Export Plug-In . SVG Version: 6.00 Build 0)  -->
<svg version="1.1" id="Capa_1" xmlns="http://www.w3.org/2000/svg" xmlns:xlink="http://www.w3.org/1999/xlink" x="0px" y="0px"
	 viewBox="0 0 26 26" style="enable-background:new 0 0 26 26;" xml:space="preserve">
<path d="M17.7,11.9c-0.4,0-0.8,0.2-1,0.5c-0.2,0.4-0.3,1-0.3,1.9V15c0,0.9,0.1,1.5,0.3,1.9c0.2,0.4,0.5,0.5,1,0.5
	c0.5,0,0.8-0.2,1.1-0.6v-4.2C18.5,12.1,18.1,11.9,17.7,11.9z M23.1,0H2.9C1.3,0,0,1.3,0,2.9v20.2C0,24.7,1.3,26,2.9,26h20.2
	c1.6,0,2.9-1.3,2.9-2.9V2.9C26,1.3,24.7,0,23.1,0z M10.5,19.2l-1.7-4.3l-1.7,4.3H4.2l3-6.2L4.3,6.9h2.9l1.7,4.2l1.7-4.2h2.9L10.4,13
	l3,6.2H10.5z M21.1,19.2H19l-0.1-0.9c-0.5,0.7-1.1,1.1-1.9,1.1c-1,0-1.7-0.4-2.2-1.1S14,16.5,14,15v-0.7c0-1.5,0.3-2.6,0.8-3.4
	c0.5-0.7,1.2-1.1,2.2-1.1c0.7,0,1.3,0.3,1.8,0.9V6.2h2.4L21.1,19.2L21.1,19.2z"/>
</svg>
