<?xml version="1.0" encoding="utf-8"?>
<!-- Generator: Adobe Illustrator 26.5.0, SVG Export Plug-In . SVG Version: 6.00 Build 0)  -->
<svg version="1.1" id="Layer_1" xmlns="http://www.w3.org/2000/svg" xmlns:xlink="http://www.w3.org/1999/xlink" x="0px" y="0px"
	 viewBox="0 0 41.8 40.8" style="enable-background:new 0 0 41.8 40.8;" xml:space="preserve">
<g>
	<path d="M21.1,24.3c1.9,0,3.5-1.6,3.5-3.5c0-0.8-0.2-1.5-0.7-2.1c-0.6-0.9-1.7-1.5-2.9-1.5s-2.2,0.6-2.9,1.5
		c-0.4,0.6-0.7,1.3-0.7,2.1C17.6,22.8,19.2,24.3,21.1,24.3z"/>
	<polygon points="28.8,16.5 28.8,13.6 28.8,13.1 28.4,13.1 25.4,13.1 25.5,16.5 	"/>
	<path d="M38,0.8H4.3c-1.7,0-3.1,1.4-3.1,3.1v33.8c0,1.7,1.4,3.1,3.1,3.1H38c1.7,0,3.1-1.4,3.1-3.1V3.9C41.1,2.2,39.7,0.8,38,0.8z
		 M31.1,18.8V27c0,2.1-1.7,3.9-3.9,3.9H15c-2.1,0-3.9-1.7-3.9-3.9v-8.2v-4.1c0-2.1,1.7-3.9,3.9-3.9h12.3c2.1,0,3.9,1.7,3.9,3.9V18.8
		z"/>
	<path d="M26.6,20.8c0,3-2.5,5.5-5.5,5.5s-5.5-2.5-5.5-5.5c0-0.7,0.1-1.4,0.4-2.1h-3V27c0,1.1,0.9,1.9,1.9,1.9h12.3
		c1.1,0,1.9-0.9,1.9-1.9v-8.2h-3C26.5,19.4,26.6,20.1,26.6,20.8z"/>
</g>
</svg>
