<?xml version="1.0" encoding="utf-8"?>
<!-- Generator: Adobe Illustrator 26.5.0, SVG Export Plug-In . SVG Version: 6.00 Build 0)  -->
<svg version="1.1" id="Layer_1" xmlns="http://www.w3.org/2000/svg" xmlns:xlink="http://www.w3.org/1999/xlink" x="0px" y="0px"
	 viewBox="0 0 41.8 40.8" style="enable-background:new 0 0 41.8 40.8;" xml:space="preserve">
<g>
	<path d="M19.9,23.5c1.9,0,3.5-1.6,3.5-3.5c0-0.8-0.2-1.5-0.7-2.1c-0.6-0.9-1.7-1.5-2.9-1.5s-2.2,0.6-2.9,1.5
		c-0.4,0.6-0.7,1.3-0.7,2.1C16.4,22,18,23.5,19.9,23.5z"/>
	<polygon points="27.7,15.7 27.7,12.8 27.7,12.3 27.3,12.3 24.3,12.3 24.4,15.7 	"/>
	<path d="M36.9,0H3.1C1.4,0,0,1.4,0,3.1v33.8C0,38.6,1.4,40,3.1,40h33.8c1.7,0,3.1-1.4,3.1-3.1V3.1C40,1.4,38.6,0,36.9,0z M30,18
		v8.2c0,2.1-1.7,3.9-3.9,3.9H13.8c-2.1,0-3.9-1.7-3.9-3.9V18v-4.1c0-2.1,1.7-3.9,3.9-3.9h12.3c2.1,0,3.9,1.7,3.9,3.9V18H30z"/>
	<path d="M25.5,20c0,3-2.5,5.5-5.5,5.5S14.4,23,14.4,20c0-0.7,0.1-1.4,0.4-2.1h-3v8.3c0,1.1,0.9,1.9,1.9,1.9h12.3
		c1.1,0,1.9-0.9,1.9-1.9V18h-3C25.4,18.6,25.5,19.3,25.5,20z"/>
</g>
</svg>
