<?xml version="1.0" encoding="utf-8"?>
<!-- Generator: Adobe Illustrator 26.5.0, SVG Export Plug-In . SVG Version: 6.00 Build 0)  -->
<svg version="1.1" id="Layer_1" xmlns="http://www.w3.org/2000/svg" xmlns:xlink="http://www.w3.org/1999/xlink" x="0px" y="0px"
	 viewBox="0 0 40.8 41.4" style="enable-background:new 0 0 40.8 41.4;" xml:space="preserve">
<path d="M37.3,0.4H3.5c-1.7,0-3.1,1.4-3.1,3.1v33.8c0,1.7,1.4,3.1,3.1,3.1h33.8c1.7,0,3.1-1.4,3.1-3.1V3.5C40.4,1.8,39,0.4,37.3,0.4
	z M14.8,28.8h-3.9V16.3h3.9C14.8,16.3,14.8,28.8,14.8,28.8z M12.8,14.7L12.8,14.7c-1.4,0-2.4-1-2.4-2.2s0.9-2.2,2.4-2.2
	s2.3,0.9,2.4,2.2C15.2,13.8,14.2,14.7,12.8,14.7z M30.4,28.8H26v-6.5c0-1.7-0.7-2.8-2.2-2.8c-1.2,0-1.8,0.8-2.1,1.5
	c-0.1,0.3-0.1,0.6-0.1,1v6.7h-4.4c0,0,0.1-11.4,0-12.5h4.4v2c0.3-0.9,1.7-2.1,3.9-2.1c2.8,0,4.9,1.8,4.9,5.7
	C30.4,21.8,30.4,28.8,30.4,28.8z"/>
</svg>
